<svg xmlns="http://www.w3.org/2000/svg" width="1200" height="420" viewBox="0 0 1200 420" role="img" aria-labelledby="title desc">
<title id="title">Engineering systems map</title><desc id="desc">Operator interfaces connect to a control plane, services, nodes and physical devices with observability.</desc>
<rect width="1200" height="420" rx="20" fill="#0B1016"/>
<rect x="1" y="1" width="1198" height="418" rx="19" fill="none" stroke="#25313D"/>
<g font-family="ui-monospace,SFMono-Regular,Consolas,monospace">
  <text x="48" y="48" fill="#8E9AA9" font-size="12" letter-spacing="2">HOW I LIKE TO BUILD SYSTEMS</text>
  <text x="48" y="79" fill="#F0F4F8" font-family="Inter,Segoe UI,Arial,sans-serif" font-size="24" font-weight="700">Visible state. Explicit control. Recoverable failures.</text>

  <!-- main flow -->
  <path d="M188 202 H288 M452 202 H552 M716 202 H816 M980 202 H1060" stroke="#2C3A48" stroke-width="2.2"/>
  <path d="M333 229 V286 H892 V229" stroke="#2C3A48" stroke-width="1.6" fill="none" stroke-dasharray="6 7"/>
  <circle cx="238" cy="202" r="4" fill="#7C93FF"/><circle cx="502" cy="202" r="4" fill="#3EE6D0"/><circle cx="766" cy="202" r="4" fill="#3EE6D0"/><circle cx="1020" cy="202" r="4" fill="#56D364"/>

  <g transform="translate(48 158)"><rect width="140" height="88" rx="14" fill="#10171F" stroke="#25313D"/><text x="70" y="30" text-anchor="middle" fill="#8E9AA9" font-size="10" letter-spacing="1.1">01 / INTERFACE</text><text x="70" y="55" text-anchor="middle" fill="#F0F4F8" font-size="14">WEB / PWA</text><text x="70" y="72" text-anchor="middle" fill="#7C93FF" font-size="10">operator view</text></g>
  <g transform="translate(288 148)"><rect width="164" height="108" rx="15" fill="#10171F" stroke="#3EE6D0" stroke-width="1.4"/><text x="82" y="30" text-anchor="middle" fill="#3EE6D0" font-size="10" letter-spacing="1.1">02 / CONTROL</text><text x="82" y="57" text-anchor="middle" fill="#F0F4F8" font-size="15">CONTROL PLANE</text><text x="82" y="78" text-anchor="middle" fill="#8E9AA9" font-size="10">API · auth · policy</text><text x="82" y="94" text-anchor="middle" fill="#8E9AA9" font-size="10">realtime · orchestration</text></g>
  <g transform="translate(552 158)"><rect width="164" height="88" rx="14" fill="#10171F" stroke="#25313D"/><text x="82" y="30" text-anchor="middle" fill="#8E9AA9" font-size="10" letter-spacing="1.1">03 / SERVICES</text><text x="82" y="55" text-anchor="middle" fill="#F0F4F8" font-size="14">LINUX SERVICES</text><text x="82" y="72" text-anchor="middle" fill="#3EE6D0" font-size="10">state + telemetry</text></g>
  <g transform="translate(816 148)"><rect width="164" height="108" rx="15" fill="#10171F" stroke="#25313D"/><text x="82" y="30" text-anchor="middle" fill="#8E9AA9" font-size="10" letter-spacing="1.1">04 / NODES</text><text x="82" y="56" text-anchor="middle" fill="#F0F4F8" font-size="14">PC + ESP32</text><text x="82" y="77" text-anchor="middle" fill="#8E9AA9" font-size="10">agents · sensors</text><text x="82" y="93" text-anchor="middle" fill="#8E9AA9" font-size="10">OTA · local control</text></g>
  <g transform="translate(1060 158)"><rect width="96" height="88" rx="14" fill="#10171F" stroke="#25313D"/><text x="48" y="30" text-anchor="middle" fill="#8E9AA9" font-size="10">05</text><text x="48" y="54" text-anchor="middle" fill="#F0F4F8" font-size="12">REAL</text><text x="48" y="70" text-anchor="middle" fill="#56D364" font-size="10">WORLD</text></g>

  <!-- observability rail -->
  <g transform="translate(333 286)"><rect width="559" height="58" rx="13" fill="#10171F" stroke="#25313D"/><circle cx="24" cy="29" r="5" fill="#56D364"/><text x="42" y="26" fill="#F0F4F8" font-size="12">OBSERVABILITY / RECOVERY RAIL</text><text x="42" y="43" fill="#8E9AA9" font-size="10">metrics · health · rollback · failure visibility · controlled recovery</text></g>

  <text x="48" y="383" fill="#8E9AA9" font-size="11" letter-spacing="1.2">DESIGN PRIORITIES  //  RESILIENCE  ·  LEAST PRIVILEGE  ·  TELEMETRY  ·  ROLLBACK  ·  HUMAN CONTROL</text>
</g>
</svg>